<svg width="171" height="171" viewBox="0 0 171 171" fill="none" xmlns="http://www.w3.org/2000/svg">
<path d="M2 169V21.0755L23 41.1509V147.868H128L149 169H2Z" fill="#FAFEFF"/>
<path d="M44 126.736V43.2642H65L107 84.4717V43.2642H128V126.736H107L65 84.4717V126.736H44Z" fill="#FAFEFF"/>
<path d="M2 169V21.0755L23 41.1509V147.868H128L149 169H2Z" stroke="white"/>
<path d="M44 126.736V43.2642H65L107 84.4717V43.2642H128V126.736H107L65 84.4717V126.736H44Z" stroke="white"/>
<path d="M23 21.0755L2 1H170V169L149 147.868V21.0755H86H23Z" fill="#FAFEFF" stroke="white"/>
</svg>
